<?xml version="1.0" encoding="utf-8"?>
<!-- Generator: Adobe Illustrator 26.3.1, SVG Export Plug-In . SVG Version: 6.00 Build 0)  -->
<svg version="1.1" id="Layer_1" xmlns="http://www.w3.org/2000/svg" xmlns:xlink="http://www.w3.org/1999/xlink" x="0px" y="0px"
	 viewBox="0 0 567.23 392.59" style="enable-background:new 0 0 567.23 392.59;" xml:space="preserve">
<style type="text/css">
	.st0{fill:#166333;}
	.st1{fill:#F4BE14;}
</style>
<g>
	<g>
		<g>
			<path class="st0" d="M142.02,11.09v169.65h-30.24V81.41L90.14,147.8H73.91L52.52,82.15v98.6H22.28V11.09h30.24l29.5,89.5
				l29.75-89.5H142.02z"/>
			<path class="st0" d="M231.76,147.8h-39.59l-6.88,32.95h-31.47l43.52-169.65h29.5l43.27,169.65h-31.47L231.76,147.8z
				 M226.35,120.75l-14.26-68.85l-14.26,68.85H226.35z"/>
			<path class="st0" d="M377.81,11.09v169.65h-30.24l-35.41-90.48v90.48h-30.24V11.09h30.24l35.41,94.42V11.09H377.81z"/>
			<path class="st0" d="M398.46,11.09h46.96c14.26,0,25.69,4.1,34.3,12.29c8.61,8.2,12.91,20.33,12.91,36.39v72.29
				c0,15.9-4.51,27.99-13.52,36.27c-9.02,8.28-20.74,12.42-35.16,12.42h-45.49V11.09z M444.68,153.7c5.74,0,10.12-2.21,13.15-6.64
				c3.03-4.43,4.55-10.57,4.55-18.44V64.94c0-8.69-1.47-15.28-4.43-19.79c-2.95-4.51-7.38-6.76-13.28-6.76h-16.23V153.7H444.68z"/>
			<path class="st0" d="M513.28,11.09h30v169.65h-30V11.09z"/>
			<path class="st0" d="M34.08,368.7c-8.52-8.28-12.79-20.37-12.79-36.27v-76.47c0-16.06,4.51-28.23,13.52-36.51
				c9.01-8.28,20.9-12.42,35.65-12.42c14.26,0,25.69,4.14,34.3,12.42c8.61,8.28,12.91,20.45,12.91,36.51v76.47
				c0,15.74-4.55,27.78-13.65,36.14c-9.1,8.36-20.86,12.54-35.28,12.54C54.16,381.11,42.6,376.98,34.08,368.7z M82.88,347.31
				c3.03-4.34,4.55-10.45,4.55-18.32v-68.11c0-8.69-1.47-15.28-4.43-19.79c-2.95-4.51-7.38-6.76-13.28-6.76
				c-6.39,0-11.03,2.21-13.89,6.64c-2.87,4.43-4.3,11.06-4.3,19.92v68.11c0,16.56,6.06,24.83,18.19,24.83
				C75.47,353.82,79.85,351.65,82.88,347.31z"/>
			<path class="st0" d="M233.23,209.49v169.65h-30.24l-35.41-90.48v90.48h-30.24V209.49h30.24l35.41,94.42v-94.42H233.23z"/>
			<path class="st0" d="M283.88,236.79v42.54h39.34v27.05h-39.34v45.73h45.73v27.05h-75.73V209.49h75.73v27.29H283.88z"/>
		</g>
	</g>
	<g>
		<g>
			<g>
				<path class="st1" d="M545.94,381.41l-3.84-10.21l-6.58-17.32c-0.63-1.58-1.29-3.25-1.96-4.93c-0.24-0.6-0.47-1.19-0.72-1.8
					c-3.53-8.89-7.4-18.67-10.68-26.91c-0.31-0.77-0.6-1.49-0.9-2.25c-2.13-5.33-4.17-10.34-6.18-15.14
					c-1.12-2.68-2.24-5.33-3.37-7.93l-2.45,56.69l-53.35,14.06c2.67,0.55,5.36,1.09,8.1,1.62c5.05,0.98,10.29,1.96,15.87,2.96
					c0.43,0.08,0.85,0.15,1.29,0.23c8.73,1.56,19.1,3.39,28.51,5.07c0.66,0.12,1.3,0.23,1.96,0.35c1.77,0.31,3.51,0.63,5.18,0.92
					l18.29,2.97l10.78,1.71c-0.02-0.03-0.03-0.07-0.05-0.11C545.86,381.4,545.9,381.4,545.94,381.41z"/>
			</g>
			<g>
				<g>
					<g>
						<path class="st1" d="M498.66,266.2c-0.81-1.69-1.6-3.36-2.45-5.12c-2.33-4.82-4.71-9.26-7.3-13.37l-3.64,84.32l-80.01,21.08
							c4.02,1.42,8.25,2.66,12.76,3.8c2.49,0.63,4.9,1.23,7.27,1.82l70.18-18.49L498.66,266.2z"/>
					</g>
					<g>
						<path class="st1" d="M475.33,231.25c-3.04-2.74-6.42-5.29-10.21-7.68l-3.84,88.88l-85.32,22.48c3.17,3.2,6.41,5.94,9.79,8.32
							l85.73-22.58L475.33,231.25z"/>
					</g>
					<g>
						<path class="st1" d="M451.14,216.44c-3.47-1.37-6.94-2.45-10.4-3.28l-3.45,79.71l-76.9,20.26c1.55,3.21,3.37,6.36,5.45,9.46
							l81.64-21.51L451.14,216.44z"/>
					</g>
					<g>
						<path class="st1" d="M426.53,211.2c-3.56-0.14-7.09-0.03-10.56,0.34l-2.67,61.76l-59.82,15.76c0.37,3.47,1,6.94,1.89,10.4
							l68.12-17.95L426.53,211.2z"/>
					</g>
					<g>
						<path class="st1" d="M401.55,214.57c-3.69,1.17-7.28,2.62-10.73,4.32l-1.51,34.83l-33.91,8.93c-0.95,3.74-1.62,7.56-2,11.42
							l46.09-12.14L401.55,214.57z"/>
					</g>
					<g>
						<path class="st1" d="M376.12,228.32c-2.95,2.4-5.74,5-8.32,7.79c-2.25,3.13-4.27,6.44-6.05,9.87l13.76-3.63L376.12,228.32z"/>
					</g>
				</g>
			</g>
		</g>
	</g>
</g>
<text transform="matrix(1 0 0 1 -3148.2668 562.4258)" style="display:none; font-family:'Helvetica-Light'; font-size:60px;">166333</text>
</svg>
